<svg width="128" height="40" viewBox="0 0 128 40" fill="none" xmlns="http://www.w3.org/2000/svg">
<g clip-path="url(#clip0_140_147)">
<path fill-rule="evenodd" clip-rule="evenodd" d="M57.1019 8.42728C56.6229 7.43125 55.9099 6.8186 54.8532 6.8186C53.8184 6.8186 52.8824 7.49891 52.5241 8.90086L49.0834 22.2138H53.1201L54.3742 16.9367C54.7728 15.2378 55.0689 13.9712 55.27 12.7722C55.6869 13.7908 56.1658 14.8545 57.1384 16.9367L58.9301 20.763C59.6248 22.2589 60.3012 22.4619 61.2958 22.4619C62.2903 22.4619 62.9667 22.2589 63.6614 20.763L65.4531 16.9593C66.3672 14.9898 66.8644 13.8359 67.3032 12.7722C67.5226 13.9938 67.8005 15.2191 68.2173 16.9367L69.5665 22.4619H73.6653L70.2064 8.90086C69.8481 7.49891 68.934 6.8186 67.8992 6.8186C66.8242 6.8186 66.1076 7.45381 65.6322 8.42728L63.5042 12.7309C62.3305 15.0612 61.815 16.1737 61.3762 17.2374C60.9191 16.1737 60.3999 15.0424 59.2262 12.7083L57.0982 8.42728H57.1019Z" fill="#EFEFEF"/>
<path fill-rule="evenodd" clip-rule="evenodd" d="M77.6581 13.3661C76.7038 13.3661 76.2467 13.0729 76.2467 12.3024C76.2467 11.5319 76.7038 11.2613 77.6581 11.2613H86.8905L89.5377 7.32227H77.9799C73.9432 7.32227 72.2722 9.17901 72.2722 12.0318C72.2722 14.6365 73.8445 16.3805 77.2669 16.3805H84.5065C85.4828 16.3805 85.9179 16.6962 85.9179 17.4667C85.9179 18.2598 85.4791 18.5755 84.5065 18.5755H72.2576L69.6104 22.4694H84.1848C88.2434 22.4694 89.8961 20.6126 89.8961 17.5118C89.8961 14.7492 88.1446 13.3698 84.9014 13.3698H77.6618L77.6581 13.3661Z" fill="#EFEFEF"/>
<path d="M98.0059 8.43103C97.5269 7.43501 96.8139 6.82236 95.7572 6.82236C94.7225 6.82236 93.7864 7.50266 93.4281 8.90462L89.9875 22.2138H94.0241L95.2782 16.9405C95.6768 15.2416 95.973 13.975 96.1741 12.776C96.5909 13.7945 97.0699 14.8582 98.0425 16.9405L99.8341 20.7667C100.529 22.2627 101.205 22.4656 102.2 22.4656C103.194 22.4656 103.871 22.2627 104.565 20.7667L106.357 16.963C107.271 14.9935 107.768 13.8396 108.207 12.776C108.427 13.9975 108.705 15.2191 109.121 16.9405L110.375 22.2138H114.474L111.114 8.90462C110.756 7.50266 109.842 6.82236 108.807 6.82236C107.732 6.82236 107.015 7.45756 106.54 8.43103L104.412 12.7309C103.238 15.0612 102.723 16.1737 102.284 17.2374C101.827 16.1737 101.308 15.0424 100.138 12.7083L98.0096 8.43103H98.0059Z" fill="#EFEFEF"/>
<path fill-rule="evenodd" clip-rule="evenodd" d="M115.129 16.264H124.475L126.84 12.8211H114.259L115.129 16.264ZM113.802 11.0094H124.91L127.575 7.07043H111.981C112.566 7.3824 113.037 7.99129 113.271 8.90463L113.802 11.0094ZM113.578 22.2176H124.972L127.619 18.3237H113.308L113.582 22.2176H113.578Z" fill="#EFEFEF"/>
<path d="M53.365 31.1818H58.239V32.7379H54.674C53.0542 32.7379 51.8988 31.7268 51.8988 30.1708C51.8988 28.6485 53.0981 27.5548 54.674 27.5548H59.537L61.4237 24.7659H54.674C51.4052 24.7659 48.9956 26.882 48.9956 30.0279C48.9956 33.14 51.4052 35.4967 54.674 35.4967H61.1422V28.7914H55.1091L53.3614 31.1818H53.365Z" fill="#EFEFEF"/>
<path d="M73.8152 33.4107C73.168 32.6552 72.8134 32.2718 72.4916 31.9974C74.0419 31.6441 74.956 30.2647 74.956 28.5959C74.956 25.5327 72.2503 24.7621 70.1076 24.7621H64.049L62.1477 27.551H70.349C71.3508 27.551 71.9541 27.9682 71.9541 28.8026C71.9541 29.5393 71.2484 30.0054 70.349 30.0054H62.1477V35.4892H65.0655V32.6514H69.5482L71.647 35.4892H75.552L73.8189 33.4032L73.8152 33.4107Z" fill="#EFEFEF"/>
<path d="M82.203 24.5892C77.6106 24.5892 75.3107 26.2881 75.3107 30.1219C75.3107 33.9556 77.6069 35.6696 82.203 35.6696C86.7845 35.6696 89.0953 33.9519 89.0953 30.1219C89.0953 26.2881 86.7845 24.5892 82.203 24.5892ZM82.203 32.8807C79.2706 32.8807 78.2139 32.4334 78.2139 30.1219C78.2139 27.8141 79.2706 27.3781 82.203 27.3781C85.1354 27.3781 86.1921 27.8103 86.1921 30.1219C86.1921 32.4297 85.1354 32.8807 82.203 32.8807Z" fill="#EFEFEF"/>
<path d="M102.174 24.7659H99.2418V30.8135C99.2418 32.3207 98.5361 32.9145 96.2984 32.9145C93.2965 32.9145 92.7041 32.3996 92.7041 30.8135V24.7659H89.801V30.8135C89.801 34.0534 91.7608 35.6733 96.2984 35.6733C100.214 35.6733 102.174 34.0534 102.174 30.8135V24.7659Z" fill="#EFEFEF"/>
<path d="M115.622 28.7914C115.622 26.4009 113.919 24.7659 111.001 24.7659H105.081L103.15 27.5548H111.268C112.171 27.5548 112.69 28.0208 112.69 28.7726C112.69 29.5092 112.167 30.0091 111.268 30.0091H103.15V35.4929H106.054V32.7492H110.986C113.919 32.7492 115.622 31.163 115.622 28.7876V28.7914Z" fill="#EFEFEF"/>
<path fill-rule="evenodd" clip-rule="evenodd" d="M21.6275 0.000457764C33.573 0.000457764 43.2551 9.94944 43.2551 22.2175C43.2551 29.4678 39.8729 35.9063 34.6443 39.9618L24.421 29.355C27.1743 28.2162 29.1158 25.4499 29.1158 22.2175C29.1158 17.9703 25.7629 14.5236 21.6275 14.5236C17.4922 14.5236 14.1393 17.9665 14.1393 22.2175C14.1393 25.5326 16.1795 28.3553 19.0388 29.4377L8.65833 39.9994C3.40044 35.9476 0 29.4903 0 22.2175C0 9.94568 9.68212 0.000457764 21.6275 0.000457764ZM21.6275 19.6804C22.9914 19.6804 24.0956 20.8155 24.0956 22.2175C24.0956 23.6194 22.9914 24.7545 21.6275 24.7545C20.2637 24.7545 19.1558 23.6194 19.1558 22.2175C19.1558 20.8155 20.2601 19.6804 21.6275 19.6804ZM21.6275 5.13845C30.8087 5.13845 38.2532 12.7872 38.2532 22.2175C38.2532 26.2053 36.9222 29.8737 34.6955 32.7791L31.2841 29.2385C32.6516 27.254 33.4596 24.8335 33.4596 22.2175C33.4596 15.5046 28.1652 10.066 21.6312 10.066C15.0972 10.066 9.80278 15.5046 9.80278 22.2175C9.80278 24.9462 10.6767 27.4645 12.1538 29.4903L8.72049 32.9821C6.39503 30.0429 5.00194 26.2993 5.00194 22.2175C5.00194 12.7834 12.4464 5.13845 21.6275 5.13845Z" fill="url(#paint0_linear_140_147)"/>
</g>
<defs>
<linearGradient id="paint0_linear_140_147" x1="0" y1="19.9999" x2="43.2551" y2="19.9999" gradientUnits="userSpaceOnUse">
<stop stop-color="#DE7754"/>
<stop offset="0.388235" stop-color="#C93055"/>
<stop offset="0.890196" stop-color="#6E128E"/>
<stop offset="1" stop-color="#4A0582"/>
</linearGradient>
<clipPath id="clip0_140_147">
<rect width="127.619" height="40" fill="white"/>
</clipPath>
</defs>
</svg>
